<svg width="22" height="22" viewBox="0 0 22 22" fill="none" xmlns="http://www.w3.org/2000/svg">
<path fill-rule="evenodd" clip-rule="evenodd" d="M10.6677 0C7.77075 0 7.40719 0.0126668 6.2694 0.0644451C5.13383 0.116446 4.35871 0.296225 3.68048 0.560006C2.97892 0.832453 2.3838 1.1969 1.79091 1.79002C1.19757 2.38291 0.83312 2.97803 0.559784 3.67937C0.295336 4.35782 0.115335 5.13316 0.0642229 6.26829C0.0133335 7.40608 0 7.76986 0 10.6668C0 13.5637 0.012889 13.9261 0.0644451 15.0639C0.116668 16.1995 0.296448 16.9746 0.560006 17.6529C0.832675 18.3544 1.19712 18.9495 1.79024 19.5424C2.38291 20.1358 2.97803 20.5011 3.67915 20.7735C4.35782 21.0373 5.13316 21.2171 6.26851 21.2691C7.4063 21.3209 7.76964 21.3336 10.6663 21.3336C13.5635 21.3336 13.9259 21.3209 15.0637 21.2691C16.1993 21.2171 16.9753 21.0373 17.654 20.7735C18.3553 20.5011 18.9495 20.1358 19.5422 19.5424C20.1355 18.9495 20.5 18.3544 20.7733 17.6531C21.0356 16.9746 21.2156 16.1993 21.2689 15.0642C21.32 13.9264 21.3333 13.5637 21.3333 10.6668C21.3333 7.76986 21.32 7.4063 21.2689 6.26851C21.2156 5.13294 21.0356 4.35782 20.7733 3.67959C20.5 2.97803 20.1355 2.38291 19.5422 1.79002C18.9489 1.19668 18.3555 0.832231 17.6533 0.560006C16.9733 0.296225 16.1977 0.116446 15.0622 0.0644451C13.9244 0.0126668 13.5621 0 10.6643 0H10.6677ZM9.71072 1.92221C9.99472 1.92177 10.3116 1.92221 10.6676 1.92221C13.5157 1.92221 13.8532 1.93243 14.9779 1.98355C16.0179 2.0311 16.5823 2.20488 16.9584 2.35088C17.4561 2.54422 17.811 2.77533 18.1841 3.14867C18.5575 3.52201 18.7886 3.87757 18.9824 4.37535C19.1284 4.75091 19.3024 5.31536 19.3497 6.35537C19.4008 7.47983 19.4119 7.81761 19.4119 10.6643C19.4119 13.511 19.4008 13.8488 19.3497 14.9732C19.3022 16.0132 19.1284 16.5777 18.9824 16.9533C18.789 17.451 18.5575 17.8055 18.1841 18.1786C17.8108 18.5519 17.4564 18.7831 16.9584 18.9764C16.5828 19.1231 16.0179 19.2964 14.9779 19.344C13.8534 19.3951 13.5157 19.4062 10.6676 19.4062C7.81937 19.4062 7.48181 19.3951 6.35735 19.344C5.31734 19.2959 4.75289 19.1222 4.37667 18.9762C3.87888 18.7828 3.52332 18.5517 3.14999 18.1784C2.77665 17.805 2.54554 17.4504 2.35176 16.9524C2.20576 16.5768 2.03175 16.0124 1.98442 14.9723C1.93331 13.8479 1.92309 13.5101 1.92309 10.6616C1.92309 7.81316 1.93331 7.47716 1.98442 6.3527C2.03198 5.31269 2.20576 4.74824 2.35176 4.37224C2.54509 3.87445 2.77665 3.5189 3.14999 3.14556C3.52332 2.77222 3.87888 2.54111 4.37667 2.34733C4.75267 2.20066 5.31734 2.02732 6.35735 1.97955C7.34136 1.9351 7.7227 1.92177 9.71072 1.91955V1.92221ZM16.3615 3.69335C15.6548 3.69335 15.0815 4.26602 15.0815 4.97292C15.0815 5.67959 15.6548 6.25293 16.3615 6.25293C17.0681 6.25293 17.6415 5.67959 17.6415 4.97292C17.6415 4.26624 17.0681 3.69335 16.3615 3.69335ZM10.6677 5.18891C7.64254 5.18891 5.18985 7.64161 5.18985 10.6667C5.18985 13.6919 7.64254 16.1435 10.6677 16.1435C13.6928 16.1435 16.1446 13.6919 16.1446 10.6667C16.1446 7.64161 13.6928 5.18891 10.6677 5.18891ZM10.6676 7.11116C12.6312 7.11116 14.2232 8.70295 14.2232 10.6667C14.2232 12.6303 12.6312 14.2223 10.6676 14.2223C8.70385 14.2223 7.11205 12.6303 7.11205 10.6667C7.11205 8.70295 8.70385 7.11116 10.6676 7.11116Z" fill="#25A59E"/>
</svg>
