<svg width="22" height="16" viewBox="0 0 22 16" fill="none" xmlns="http://www.w3.org/2000/svg">
<path fill-rule="evenodd" clip-rule="evenodd" d="M19.0013 0.457774C19.9193 0.709661 20.6422 1.45184 20.8875 2.39435C21.3333 4.10253 21.3333 7.66667 21.3333 7.66667C21.3333 7.66667 21.3333 11.2307 20.8875 12.939C20.6422 13.8815 19.9193 14.6237 19.0013 14.8757C17.3378 15.3333 10.6667 15.3333 10.6667 15.3333C10.6667 15.3333 3.99552 15.3333 2.33188 14.8757C1.41394 14.6237 0.69103 13.8815 0.445697 12.939C0 11.2307 0 7.66667 0 7.66667C0 7.66667 0 4.10253 0.445697 2.39435C0.69103 1.45184 1.41394 0.709661 2.33188 0.457774C3.99552 0 10.6667 0 10.6667 0C10.6667 0 17.3378 0 19.0013 0.457774ZM8.66669 4.6666V11.3333L14 8.00006L8.66669 4.6666Z" fill="#25A59E"/>
</svg>
